<svg height="512" viewBox="0 0 512 512" width="512" xmlns="http://www.w3.org/2000/svg"><g id="Filled_outline" data-name="Filled outline"><path d="m424 32v416a8 8 0 0 1 -8 8h-280a48 48 0 0 1 -48-48v-336a48 48 0 0 1 48-48h280a8 8 0 0 1 8 8z" fill="#348fd9"/><path d="m424 143.08v304.92a8 8 0 0 1 -8 8h-280a48 48 0 0 1 -48-48v-3.68c126.47-42.04 251.43-122.53 336-261.24z" fill="#3086cd"/><path d="m424 360v88a8 8 0 0 1 -8 8h-280a47.813 47.813 0 0 1 -33.94-14.06 48.343 48.343 0 0 1 -7.64-9.94 48 48 0 0 1 41.58-72z" fill="#e0e0de"/><path d="m424 416v16h-329.58a47.643 47.643 0 0 1 -5.75-16z" fill="#c7c7c5"/><path d="m216 488-32-32-32 32v-88h64z" fill="#f35244"/><path d="m192 104h176v48h-176z" fill="#e0e0de"/><path d="m192 136h176v16h-176z" fill="#d9d9d7"/><path d="m152 400h64v16h-64z" fill="#de4132"/><path d="m416 16h-280a56.064 56.064 0 0 0 -56 56v336a55.949 55.949 0 0 0 56 56h8v24a8 8 0 0 0 13.657 5.657l26.343-26.344 26.343 26.344a8 8 0 0 0 13.657-5.657v-88h192v16h-176v16h176v16h-176v16h176a16.019 16.019 0 0 0 16-16v-416a16.019 16.019 0 0 0 -16-16zm-320 56a40.045 40.045 0 0 1 40-40h280v320h-280a55.82 55.82 0 0 0 -40 16.862zm.805 328h47.195v16h-47.2a40.179 40.179 0 0 1 0-16zm39.195 48a40.092 40.092 0 0 1 -32-16h40v16zm72 20.687-18.343-18.344a8 8 0 0 0 -11.314 0l-18.343 18.344v-68.687h48zm-103.978-84.687a39.962 39.962 0 0 1 31.978-16h280v16z"/><path d="m128 48h16v288h-16z"/><path d="m192 160h176a8 8 0 0 0 8-8v-48a8 8 0 0 0 -8-8h-176a8 8 0 0 0 -8 8v48a8 8 0 0 0 8 8zm8-48h160v32h-160z"/></g></svg>