<svg height="512" viewBox="0 0 512 512" width="512" xmlns="http://www.w3.org/2000/svg"><g id="Filled_outline" data-name="Filled outline"><rect fill="#2d7dbf" height="288" rx="40" width="416" x="72" y="64"/><path d="m72 120h416v64h-416z" fill="#34507b"/><rect fill="#348fd9" height="288" rx="40" width="416" x="24" y="160"/><path d="m440 213.32v194.68a40 40 0 0 1 -40 40h-336a40 40 0 0 1 -40-40v-24.87c150.52-31.9 298.54-85.64 416-169.81z" fill="#3086cd"/><rect fill="#ffb531" height="64" rx="8" width="64" x="72" y="208"/><path d="m368 352a31.916 31.916 0 0 0 -24 10.845 32 32 0 1 0 0 42.31 32 32 0 1 0 24-53.155z" fill="#f35244"/><path d="m448 56h-336a48.054 48.054 0 0 0 -48 48v32h16v-8h400v48h-16v16h16v120a32.019 32.019 0 0 1 -19.2 29.34l6.4 14.66a48.017 48.017 0 0 0 28.8-44v-208a48.054 48.054 0 0 0 -48-48zm-368 56v-8a32.036 32.036 0 0 1 32-32h336a32.036 32.036 0 0 1 32 32v8z"/><path d="m400 152h-336a48.054 48.054 0 0 0 -48 48v208a48.054 48.054 0 0 0 48 48h336a48.054 48.054 0 0 0 48-48v-208a48.054 48.054 0 0 0 -48-48zm32 256a32.036 32.036 0 0 1 -32 32h-336a32.036 32.036 0 0 1 -32-32v-208a32.036 32.036 0 0 1 32-32h336a32.036 32.036 0 0 1 32 32z"/><path d="m144 264v-48a16.019 16.019 0 0 0 -16-16h-48a16.019 16.019 0 0 0 -16 16v48a16.019 16.019 0 0 0 16 16h48a16.019 16.019 0 0 0 16-16zm-16 0h-48v-16h16v-16h-16v-16h48v16h-16v16h16.007v16z"/><path d="m368 344a40.006 40.006 0 0 0 -24 8.01 40 40 0 1 0 0 63.98 40 40 0 1 0 24-71.99zm0 64a24.023 24.023 0 0 1 -18-8.137 8 8 0 0 0 -12 0 24 24 0 1 1 0-31.726 8 8 0 0 0 12 0 24 24 0 1 1 18 39.863z"/><path d="m384 216h16v32h-16z"/><path d="m352 216h16v32h-16z"/><path d="m320 216h16v32h-16z"/><path d="m288 216h16v32h-16z"/><path d="m64 312h16v16h-16z"/><path d="m96 312h16v16h-16z"/><path d="m144 312h16v16h-16z"/><path d="m176 312h16v16h-16z"/><path d="m224 312h16v16h-16z"/><path d="m256 312h16v16h-16z"/><path d="m304 312h16v16h-16z"/><path d="m336 312h16v16h-16z"/><path d="m168 368h16v16h-16z"/><path d="m136 368h16v16h-16z"/><path d="m200 368h16v16h-16z"/><path d="m232 368h16v16h-16z"/></g></svg>