<svg height="512" viewBox="0 0 512 512" width="512" xmlns="http://www.w3.org/2000/svg"><g id="Filled_outline" data-name="Filled outline"><path d="m248 258v214a16 16 0 0 1 -16 16h-144a16 16 0 0 1 -16-16v-214a88.029 88.029 0 0 1 56-82v-112h64v112a87.93 87.93 0 0 1 56 82z" fill="#61311c"/><path d="m248 258v214a16 16 0 0 1 -16 16h-144a16 16 0 0 1 -16-16v-82.56c62.28-37.37 121.34-90.15 170.37-162.47a87.709 87.709 0 0 1 5.63 31.03z" fill="#4f2816"/><path d="m136 24h48a8 8 0 0 1 8 8v32a0 0 0 0 1 0 0h-64a0 0 0 0 1 0 0v-32a8 8 0 0 1 8-8z" fill="#c84431"/><path d="m128 64h64v88h-64z" fill="#c84431"/><path d="m104 264h112v176h-112z" fill="#f2dec2"/><path d="m179.853 327.63c8.121-8.086 3.64-22.173-7.583-23.839a13.557 13.557 0 0 0 -24.54 0c-11.223 1.666-15.7 15.753-7.583 23.839-1.917 11.417 9.815 20.124 19.853 14.734 10.038 5.39 21.77-3.317 19.853-14.734z" fill="#ffb531"/><path d="m128 56h64v16h-64z" fill="#b33522"/><path d="m336 456h48a32 32 0 0 1 32 32 0 0 0 0 1 0 0h-112a0 0 0 0 1 0 0 32 32 0 0 1 32-32z" fill="#e0e0de"/><path d="m336 456h48a32 32 0 0 1 32 32 0 0 0 0 1 0 0h-112a0 0 0 0 1 0 0 32 32 0 0 1 32-32z" fill="#e0e0de"/><path d="m376 320.05v135.95h-32v-136z" fill="#d9d9d7"/><path d="m376 320.05v38.38a82.031 82.031 0 0 1 -16.02 1.57q-2.76 0-5.55-.18a74.789 74.789 0 0 1 -10.43-1.43v-38.39z" fill="#cfcfcd"/><path d="m440 265.78a77.116 77.116 0 0 1 -23.43 55.32 80.435 80.435 0 0 1 -40.57 21.33 82.031 82.031 0 0 1 -16.02 1.57q-2.76 0-5.55-.18a74.789 74.789 0 0 1 -10.43-1.43 80.772 80.772 0 0 1 -45.79-28.18 79.085 79.085 0 0 1 -18.21-50.21v-.47a206.369 206.369 0 0 1 8.23-55.29l11.76-40.24h120.01l.65 2.24 11.11 38a205.4 205.4 0 0 1 8.23 55.76c.01.59.01 1.19.01 1.78z" fill="#e0e0de"/><path d="m440 265.78a77.116 77.116 0 0 1 -23.43 55.32 80.435 80.435 0 0 1 -40.57 21.33 82.031 82.031 0 0 1 -16.02 1.57q-2.76 0-5.55-.18a74.789 74.789 0 0 1 -10.43-1.43 80.772 80.772 0 0 1 -45.79-28.18c50.13-29.3 95.05-75.17 122.44-143.97l11.11 38a205.4 205.4 0 0 1 8.23 55.76c.01.59.01 1.19.01 1.78z" fill="#d9d9d7"/><path d="m440 265.78a77.116 77.116 0 0 1 -23.43 55.32 80.435 80.435 0 0 1 -40.57 21.33 82.031 82.031 0 0 1 -16.02 1.57q-2.76 0-5.55-.18a74.789 74.789 0 0 1 -10.43-1.43 80.772 80.772 0 0 1 -45.79-28.18 79.085 79.085 0 0 1 -18.21-50.21h159.99c.01.59.01 1.19.01 1.78z" fill="#c84431"/><path d="m440 265.78a77.116 77.116 0 0 1 -23.43 55.32 80.435 80.435 0 0 1 -40.57 21.33 82.031 82.031 0 0 1 -16.02 1.57q-2.76 0-5.55-.18a74.789 74.789 0 0 1 -10.43-1.43 80.772 80.772 0 0 1 -45.79-28.18 283.2 283.2 0 0 0 63.39-50.21h78.39c.01.59.01 1.19.01 1.78z" fill="#bb3e2d"/><path d="m200 170.706v-138.706a16.019 16.019 0 0 0 -16-16h-48a16.019 16.019 0 0 0 -16 16v32a8 8 0 0 0 8 8h56v72h-48v-56h-16v82.706a96.032 96.032 0 0 0 -56 87.294v214a24.027 24.027 0 0 0 24 24h144a24.027 24.027 0 0 0 24-24v-214a96.032 96.032 0 0 0 -56-87.292zm-64-138.706h48v24h-48zm104 440a8.009 8.009 0 0 1 -8 8h-144a8.009 8.009 0 0 1 -8-8v-214a80.027 80.027 0 0 1 50.91-74.546 8 8 0 0 0 5.09-7.454v-16h48v16a8 8 0 0 0 5.09 7.452 80.027 80.027 0 0 1 50.91 74.548z"/><path d="m142.551 213.26-5.82-14.9a63.706 63.706 0 0 0 -37.4 39.1l15.169 5.088a47.743 47.743 0 0 1 28.051-29.288z"/><path d="m216 256h-112a8 8 0 0 0 -8 8v176a8 8 0 0 0 8 8h112a8 8 0 0 0 8-8v-176a8 8 0 0 0 -8-8zm-8 176h-96v-160h96z"/><path d="m141.112 347.936a21.3 21.3 0 0 0 18.888 3.071 21.321 21.321 0 0 0 18.887-3.071 21.876 21.876 0 0 0 9.171-17.686 22.056 22.056 0 0 0 2.812-19.586 21.706 21.706 0 0 0 -13.47-13.815 21.532 21.532 0 0 0 -34.8 0 21.706 21.706 0 0 0 -13.47 13.815 22.058 22.058 0 0 0 2.812 19.587 21.878 21.878 0 0 0 9.17 17.685zm3.216-32.27a5.653 5.653 0 0 1 4.577-3.962 8 8 0 0 0 6.028-4.433 5.56 5.56 0 0 1 10.134 0 8 8 0 0 0 6.033 4.429 5.653 5.653 0 0 1 4.577 3.962 6.112 6.112 0 0 1 -1.464 6.3 8 8 0 0 0 -2.245 6.994 6 6 0 0 1 -2.4 5.979 5.335 5.335 0 0 1 -5.777.381 8.008 8.008 0 0 0 -7.57 0 5.337 5.337 0 0 1 -5.778-.381 6 6 0 0 1 -2.4-5.979 8 8 0 0 0 -2.245-6.994 6.112 6.112 0 0 1 -1.47-6.296z"/><path d="m128 368h64v16h-64z"/><path d="m136 400h48v16h-48z"/><path d="m384 448v-99.254a88.1 88.1 0 0 0 38.163-21.926 84.8 84.8 0 0 0 25.837-61.04c0-.634 0-1.279-.01-1.848a213.383 213.383 0 0 0 -8.552-57.932l-11.759-40.24a8 8 0 0 0 -7.679-5.76h-120.01a8 8 0 0 0 -7.678 5.756l-11.76 40.237a214.257 214.257 0 0 0 -8.552 57.537v.431c-.2 40.795 30.055 77.88 70.365 86.26a83.137 83.137 0 0 0 11.552 1.583c2.023.13 4.063.2 6.063.2 2.679 0 5.356-.135 8.02-.372v96.368h-16v-80h-16v80a40.045 40.045 0 0 0 -40 40 8 8 0 0 0 8 8h112a8 8 0 0 0 8-8 40.045 40.045 0 0 0 -40-40zm-88.091-237.516 10.078-34.484h108.013l10.077 34.48a197.721 197.721 0 0 1 7.67 45.52h-143.5c.306-6.045.877-12.118 1.739-18.142a196.243 196.243 0 0 1 5.923-27.374zm59.041 125.353a67.037 67.037 0 0 1 -9.322-1.279c-30.353-6.311-53.728-32.448-57.173-62.558h143.254a68.988 68.988 0 0 1 -20.73 43.378 72.247 72.247 0 0 1 -36.54 19.205 75.2 75.2 0 0 1 -19.489 1.254zm-41.579 144.163a24.042 24.042 0 0 1 22.629-16h48a24.042 24.042 0 0 1 22.629 16z"/><path d="m327.351 214.085 5.7-20.987-15.441-4.2-5.7 20.985a231.929 231.929 0 0 0 -6.1 30.328l15.861 2.1a215.683 215.683 0 0 1 5.68-28.226z"/></g></svg>