<?xml version="1.0"?>
<svg xmlns="http://www.w3.org/2000/svg" viewBox="0 0 512 512" width="512" height="512"><g id="Filled_outline" data-name="Filled outline"><path d="M493.35,178.05l-76.68-69.01,15.2-83.61a7.995,7.995,0,0,0-12.94-7.61,2.971,2.971,0,0,0-.34.28L324.89,104H187.11L93.41,18.1a8,8,0,0,0-13.28,7.33l15.2,83.61L18.65,178.05A8.12,8.12,0,0,0,16.58,181,8.006,8.006,0,0,0,24,192h89.36l19.29,102.85,3.19,17.01-31.65,142.4A8,8,0,0,0,112,464h32a8.018,8.018,0,0,0,4.33-1.27L256,393.51l107.67,69.22A8.018,8.018,0,0,0,368,464h40a8,8,0,0,0,7.71-10.14l-39.5-142.21L398.64,192H488a8,8,0,0,0,5.35-13.95Z" style="fill:#2d7dbf"/><path d="M448,456v32a8,8,0,0,1-8,8H368a8,8,0,0,1-8-8V456a8,8,0,0,1,8-8h72a8,8,0,0,1,8,8Z" style="fill:#e0e0de"/><path d="M448,456v32a8,8,0,0,1-8,8H380.14a466.659,466.659,0,0,0,63.49-47.13A7.985,7.985,0,0,1,448,456Z" style="fill:#d9d9d7"/><path d="M152,456v32a8,8,0,0,1-8,8H72a8,8,0,0,1-8-8V456a8,8,0,0,1,8-8h72a8,8,0,0,1,8,8Z" style="fill:#e0e0de"/><path d="M152,456v32a8,8,0,0,1-8,8H84.14a466.659,466.659,0,0,0,63.49-47.13A7.985,7.985,0,0,1,152,456Z" style="fill:#d9d9d7"/><path d="M493.352,178.054,416.669,109.04l15.2-83.609A8,8,0,0,0,418.594,18.1L324.888,104H187.112L93.406,18.1a8,8,0,0,0-13.277,7.328l15.2,83.609L18.648,178.054A8,8,0,0,0,24,192H156l30,40H137.139l-4.776-25.474-15.726,2.948,19.2,102.389L105.583,448H72a8,8,0,0,0-8,8v32a8,8,0,0,0,8,8h72a8,8,0,0,0,8-8V460.368L256,393.51l104,66.858V488a8,8,0,0,0,8,8h72a8,8,0,0,0,8-8V456a8,8,0,0,0-8-8H414.081L376.205,311.648,398.639,192H488a8,8,0,0,0,5.352-13.946ZM374.861,232H326l30-40h26.361ZM311.1,251.87,351.643,304H272ZM340.761,320,256,374.49,171.239,320Zm-191.439,4.932L228.761,376H137.973ZM363.2,324.6,377.475,376H283.239Zm.214-31.53L328.357,248h43.5ZM184.343,123.656,236.687,176H137.815Zm-59.927,43.335L113.973,120h52.212ZM374.185,176H275.313l52.344-52.344Zm13.4-9.009L345.815,120h52.212ZM411.875,45.967,401.323,104H348.566ZM308.687,120,256,172.687,203.313,120ZM163.434,104H110.677L100.125,45.967Zm-64.27,23.115L110.027,176H44.848ZM336,192,256,298.667,176,192ZM240,304H160.357L200.9,251.87Zm-56.357-56-35.054,45.068L140.139,248ZM134.418,392h94.343L141.65,448H121.973ZM136,480H80V464h56Zm296,0H376V464h56Zm-61.65-32-87.111-56h98.68l15.556,56Zm31.623-272,10.863-48.885L467.152,176Z"/></g></svg>
