<svg height="512" viewBox="0 0 512 512" width="512" xmlns="http://www.w3.org/2000/svg"><g id="Filled_outline" data-name="Filled outline"><path d="m488 288v176a24.006 24.006 0 0 1 -24 24h-176l-24-32h-16l-24 32h-176a23.992 23.992 0 0 1 -23.15-17.69 23.5 23.5 0 0 1 -.85-6.31v-176z" fill="#60d1e0"/><path d="m488 288v176a24.006 24.006 0 0 1 -24 24h-176l-24-32h-16l-24 32h-176a23.992 23.992 0 0 1 -23.15-17.69c128.1-25.55 260.36-80.7 355.16-182.31z" fill="#5bccd9"/><rect fill="#348fd9" height="120" rx="24" width="160" x="64" y="328"/><rect fill="#f35244" height="120" rx="24" width="160" x="288" y="328"/><path d="m128 76a11.984 11.984 0 0 1 -12 12h-1.48a13.476 13.476 0 0 1 -13.07-10.21l-2.05-8.18a17.968 17.968 0 0 0 -35.4 4.36v86.03l48 88v40h-88v-212a52 52 0 1 1 104 0z" fill="#348fd9"/><path d="m400 288h88v-212a52 52 0 0 0 -52-52 52 52 0 0 0 -52 52 12 12 0 0 0 12 12h1.477a13.477 13.477 0 0 0 13.075-10.209l2.045-8.18a17.97 17.97 0 0 1 17.433-13.611 17.969 17.969 0 0 1 17.97 17.97v86.03l-48 88z" fill="#348fd9"/><path d="m95.716 364h56.569v16h-56.569z" fill="#459de6" transform="matrix(.707 -.707 .707 .707 -226.725 196.638)"/><path d="m106.745 384h90.51v16h-90.51z" fill="#459de6" transform="matrix(.707 -.707 .707 .707 -232.666 222.294)"/><path d="m319.716 364h56.569v16h-56.569z" fill="#fc685b" transform="matrix(.707 -.707 .707 .707 -161.117 355.029)"/><path d="m330.745 384h90.51v16h-90.51z" fill="#fc685b" transform="matrix(.707 -.707 .707 .707 -167.058 380.686)"/><path d="m24 264h88v24h-88z" fill="#3086cd"/><path d="m400 264h88v24h-88z" fill="#3086cd"/><path d="m200 320h-112a32.036 32.036 0 0 0 -32 32v72a32.036 32.036 0 0 0 32 32h112a32.036 32.036 0 0 0 32-32v-72a32.036 32.036 0 0 0 -32-32zm16 104a16.019 16.019 0 0 1 -16 16h-112a16.019 16.019 0 0 1 -16-16v-72a16.019 16.019 0 0 1 16-16h112a16.019 16.019 0 0 1 16 16z"/><path d="m280 352v72a32.036 32.036 0 0 0 32 32h112a32.036 32.036 0 0 0 32-32v-72a32.036 32.036 0 0 0 -32-32h-112a32.036 32.036 0 0 0 -32 32zm160 0v72a16.019 16.019 0 0 1 -16 16h-112a16.019 16.019 0 0 1 -16-16v-72a16.019 16.019 0 0 1 16-16h112a16.019 16.019 0 0 1 16 16z"/><path d="m436 16a60.068 60.068 0 0 0 -60 60 20.023 20.023 0 0 0 20 20h1.477a21.445 21.445 0 0 0 20.836-16.269l2.045-8.179a9.97 9.97 0 0 1 19.642 2.418v83.99l-47.023 86.209a8 8 0 0 0 -.977 3.831v32h-272v-32a8 8 0 0 0 -.977-3.831l-47.023-86.209v-83.99a9.97 9.97 0 0 1 19.642-2.418l2.045 8.18a21.445 21.445 0 0 0 20.836 16.268h1.477a20.023 20.023 0 0 0 20-20 60 60 0 0 0 -120 0v188h16v-188a44 44 0 0 1 88 0 4 4 0 0 1 -4 4h-1.477a5.47 5.47 0 0 1 -5.314-4.149l-2.045-8.18a25.97 25.97 0 0 0 -51.164 6.299v86.03a8 8 0 0 0 .977 3.831l47.023 86.209v29.96h-80a8 8 0 0 0 -8 8v176a32.036 32.036 0 0 0 32 32h176a8 8 0 0 0 6.4-3.2l21.6-28.8h8l21.6 28.8a8 8 0 0 0 6.4 3.2h176a32.036 32.036 0 0 0 32-32v-388a60.068 60.068 0 0 0 -60-60zm-28 234.04 47.023-86.209a8 8 0 0 0 .977-3.831v-86.03a25.97 25.97 0 0 0 -51.164-6.3l-2.045 8.18a5.47 5.47 0 0 1 -5.314 4.15h-1.477a4 4 0 0 1 -4-4 44 44 0 0 1 88 0v204h-72zm72 213.96a16.019 16.019 0 0 1 -16 16h-172l-21.6-28.8a8 8 0 0 0 -6.4-3.2h-16a8 8 0 0 0 -6.4 3.2l-21.6 28.8h-172a16.019 16.019 0 0 1 -16-16v-168h448z"/><path d="m95.716 364h56.569v16h-56.569z" transform="matrix(.707 -.707 .707 .707 -226.725 196.638)"/><path d="m106.745 384h90.51v16h-90.51z" transform="matrix(.707 -.707 .707 .707 -232.666 222.294)"/><path d="m319.716 364h56.569v16h-56.569z" transform="matrix(.707 -.707 .707 .707 -161.117 355.029)"/><path d="m330.745 384h90.51v16h-90.51z" transform="matrix(.707 -.707 .707 .707 -167.058 380.686)"/></g></svg>