<?xml version="1.0"?>
<svg xmlns="http://www.w3.org/2000/svg" viewBox="0 0 512 512" width="512" height="512"><g id="Filled_outline" data-name="Filled outline"><path d="M464,168H408C355.383,293.854,213.588,354.385,87.373,303.927c-1.225-.491-2.456-1-3.683-1.508-1.891-.79-3.76-1.637-5.634-2.442-11.94-5.144-20.572-11.278-31.337-20.114L24,304.832a232.235,232.235,0,0,0,30.382,45.446c.585.7,1.174,1.39,1.776,2.076a232.424,232.424,0,0,0,85.579,61.531c118.878,49.7,255.547-6.382,305.248-125.261C463.511,249.1,469.286,207.605,464,168Z" style="fill:#fa9f0c"/><path d="M212.231,373.649q-9.685,0-19.648-.656A321.856,321.856,0,0,1,91.946,349.714l6.172-14.762a305.374,305.374,0,0,0,95.517,22.075c43.1,2.843,81.893-4.072,115.313-20.543,55.775-27.49,94.52-80.942,115.162-158.871l15.467,4.1c-21.879,82.6-63.449,139.5-123.555,169.126C285.253,366,250.412,373.649,212.231,373.649Z" style="fill:#fcac1f"/><path d="M87.373,303.927c-9.145,13.009-23.02,32.636-32.991,46.351A232.235,232.235,0,0,1,24,304.832l22.719-24.969c10.765,8.836,19.4,14.97,31.337,20.114,1.874.805,3.743,1.652,5.634,2.442C84.917,302.932,86.148,303.436,87.373,303.927Z" style="fill:#e8890c"/><path d="M488,254.69C488,383.54,383.54,488,254.69,488A232.421,232.421,0,0,1,152,464.24c-.82-.4-1.63-.81-2.44-1.23A232.241,232.241,0,0,1,104,432.8L115.33,401c13.34,4,23.67,6.33,36.67,6.47,2.04.02,4.09.08,6.14.08,1.33,0,2.662.04,3.98-.03C304,400,408,304,407.55,158.14A253.8,253.8,0,0,0,401.64,104H368V72H472v32H432.8A232.352,232.352,0,0,1,488,254.69Z" style="fill:#ffb531"/><path d="M184,448V432c116.659,0,175.48-45.907,200.16-73.271,40.2-44.57,56.307-108.464,47.882-189.906l15.916-1.646c8.911,86.138-8.557,154.191-51.916,202.268C334.4,437.794,236.731,448,184,448Z" style="fill:#ffc361"/><path d="M162.12,407.52c-3.42,15.53-8.65,38.99-12.56,55.49A232.241,232.241,0,0,1,104,432.8L115.33,401c13.34,4,23.67,6.33,36.67,6.47,2.04.02,4.09.08,6.14.08C159.47,407.55,160.8,407.54,162.12,407.52Z" style="fill:#f98500"/><path d="M168,80H152V56a40.045,40.045,0,0,1,40-40V32a24.027,24.027,0,0,0-24,24Z" style="fill:#92563a"/><path d="M296,107.88v13.2A225.013,225.013,0,0,1,255.33,250.1a51.351,51.351,0,0,1-78.37,6.86L160,240l-16.96,16.96a51.337,51.337,0,0,1-78.37-6.86A225,225,0,0,1,24,121.08v-13.2a67.882,67.882,0,0,1,115.88-48L160,80l20.12-20.12c1.25-1.25,2.55-2.45,3.88-3.59a67.883,67.883,0,0,1,112,51.59Z" style="fill:#e0e0de"/><path d="M184,56.29V262.84a51.047,51.047,0,0,1-7.04-5.88L160,240l-16.96,16.96a51.337,51.337,0,0,1-78.37-6.86A225,225,0,0,1,24,121.08v-13.2a67.882,67.882,0,0,1,115.88-48L160,80l20.12-20.12C181.37,58.63,182.67,57.43,184,56.29Z" style="fill:#d9d9d7"/><path d="M139.882,59.882A67.882,67.882,0,0,0,91.882,40h0A67.882,67.882,0,0,0,24,107.882v13.2A224.987,224.987,0,0,0,64.67,250.1h0A51.345,51.345,0,0,0,106.733,272h0a51.342,51.342,0,0,0,36.305-15.038L160,240V80Z" style="fill:#7eb457"/><path d="M176,184H160V136h16a24,24,0,0,1,24,24h0A24,24,0,0,1,176,184Z" style="fill:#cfcfcd"/><path d="M52.227,145.891c-4.8-19.733-4.459-36.988,1.013-51.287l14.943,5.719c-4.289,11.209-4.427,25.268-.41,41.786Z" style="fill:#88c25e"/><path d="M74.024,89.943,61.469,80.025C68.933,70.576,77,67,77.9,66.625l6.2,14.75L81,74l3.179,7.341A30.7,30.7,0,0,0,74.024,89.943Z" style="fill:#88c25e"/><path d="M449.291,112H472a8,8,0,0,0,8-8V72a8,8,0,0,0-8-8H368a8,8,0,0,0-8,8v32a8,8,0,0,0,8,8h27.128a248.113,248.113,0,0,1,4.422,46.165c.01,3.2-.049,6.378-.142,9.54C374.386,225.581,329.02,270.756,271.5,294.994c-58.057,24.464-122.208,24.528-181.147,1.513A150.952,150.952,0,0,1,51.8,273.679a8,8,0,0,0-11,.8l-22.72,24.97a8,8,0,0,0-1.21,9.018,240.357,240.357,0,0,0,31.391,46.973c.629.746,1.257,1.481,1.872,2.177a239.752,239.752,0,0,0,41.217,37.347l9.294-13.023a223.769,223.769,0,0,1-36.033-32.153c8.774-12.166,19.193-26.9,25.705-36.144a252.864,252.864,0,0,0,187.394-3.9,255.761,255.761,0,0,0,117.066-99.126c-6.93,36.168-21.348,68.743-42.8,96.505-35.642,32.475-81.063,49.459-135.015,50.473-55.878,1.051-101.727-15.484-118.845-22.641l-6.172,14.762c17.5,7.317,63.469,23.927,119.944,23.927,1.778,0,3.575-.017,5.374-.051q40.056-.751,74.239-12.483a246.2,246.2,0,0,1-34.183,17.4C228.1,390.643,195.98,399.584,161.7,399.531c-20.364-.031-31.445-2.408-44.069-6.194a8,8,0,0,0-9.834,4.978l-11.33,31.8a8,8,0,0,0,2.362,8.786,240.133,240.133,0,0,0,47.052,31.211q1.3.675,2.6,1.31A241.358,241.358,0,0,0,496,254.69,241.514,241.514,0,0,0,449.291,112ZM47.582,290.8a120.67,120.67,0,0,0,27.332,16.535l.21.092C69.276,315.716,61.261,327.035,54,337.141A224.711,224.711,0,0,1,33.688,306.07Zm72.764,119.959a120.568,120.568,0,0,0,31.573,4.71l.25,0c-2.2,9.9-5.227,23.436-8.027,35.561a224.415,224.415,0,0,1-30.725-20.827Zm293.661,3.248a225.416,225.416,0,0,1-255.2,44.607c3.425-14.711,7.384-32.463,9.824-43.488,33.794-2.4,65.667-9.732,94.823-21.845A249.891,249.891,0,0,0,343.833,340.4C390.975,293.8,415.774,230.77,415.55,158.116a262.516,262.516,0,0,0-6.1-55.845A8,8,0,0,0,401.64,96H376V80h88V96H432.8a8,8,0,0,0-6.105,13.17,225.295,225.295,0,0,1-12.688,304.837Z"/><path d="M447.958,167.177l-15.916,1.646c8.425,81.442-7.685,145.336-47.882,189.906C359.48,386.093,300.659,432,184,432v16c52.731,0,150.4-10.206,212.042-78.555C439.4,321.368,456.869,253.315,447.958,167.177Z"/><path d="M58.116,254.688a59.345,59.345,0,0,0,90.579,7.931L160,251.313l11.305,11.306a59.345,59.345,0,0,0,90.579-7.931A231.853,231.853,0,0,0,304,121.08v-13.2A75.882,75.882,0,0,0,174.461,54.226L168,60.687V56a24.027,24.027,0,0,1,24-24V16a40.045,40.045,0,0,0-40,40v4.687l-6.461-6.461A75.9,75.9,0,0,0,16,107.882h0v13.2a234.39,234.39,0,0,0,3.421,39.99A231.842,231.842,0,0,0,58.116,254.688ZM168,144h8a16,16,0,0,1,0,32h-8Zm17.774-78.461A59.883,59.883,0,0,1,288,107.882v13.2a215.927,215.927,0,0,1-39.224,124.432,43.343,43.343,0,0,1-66.157,5.793L168,236.687V192h8a32,32,0,0,0,0-64h-8V83.313ZM79.829,49.219a59.946,59.946,0,0,1,54.4,16.32L152,83.313V236.687l-14.619,14.618a43.345,43.345,0,0,1-66.157-5.793q-4.812-6.873-9.053-14.036A215.782,215.782,0,0,1,32,121.08v-13.2A59.985,59.985,0,0,1,79.829,49.219Z"/><path d="M52.227,145.891l15.546-3.782c-4.017-16.518-3.879-30.577.41-41.786L53.24,94.6C47.768,108.9,47.427,126.158,52.227,145.891Z"/><path d="M84.179,81.341,81,74l-3.1-7.375c-.9.376-8.967,3.951-16.431,13.4l12.555,9.918A30.7,30.7,0,0,1,84.179,81.341Z"/></g></svg>
