<svg height="512" viewBox="0 0 512 512" width="512" xmlns="http://www.w3.org/2000/svg"><g id="Filled_outline" data-name="Filled outline"><path d="m32 136h224v64h-224z" fill="#ffb531"/><path d="m64 200h192v288h-192z" fill="#ffb531"/><path d="m64 200h192v24h-192z" fill="#fa9f0c"/><path d="m128 200h64v288h-64z" fill="#de4132"/><path d="m256 136h224v64h-224z" fill="#f98500" transform="matrix(-1 0 0 -1 736 336)"/><path d="m256 200h192v288h-192z" fill="#f98500"/><path d="m448 296.76v191.24h-192v-30.92c71.74-33.08 139.85-84.39 192-160.32z" fill="#f77c00"/><path d="m256 200h192v24h-192z" fill="#f07800"/><path d="m320 200h64v288h-64z" fill="#de4132"/><g fill="#f35244"><path d="m160 136-64 152 40-16 24 40 72-176z"/><path d="m352 136 64 152-40-16-24 40-72-176z"/><path d="m232 88h48v48h-48z"/></g><path d="m232 88v48h-32l-18.73-37.47a48 48 0 0 0 -42.94-26.53h-66.33v-16a32 32 0 0 1 32-32h66.33a48 48 0 0 1 42.94 26.53z" fill="#de4132"/><path d="m176 136h-72a32 32 0 0 1 -32-32v-48a32 32 0 0 1 32-32h64a32 32 0 0 0 -32 32v48a32 32 0 0 0 32 32z" fill="#f35244"/><path d="m280 88v48h32l18.73-37.47a48 48 0 0 1 42.94-26.53h66.33v-16a32 32 0 0 0 -32-32h-66.33a48 48 0 0 0 -42.94 26.53z" fill="#de4132"/><path d="m336 136h72a32 32 0 0 0 32-32v-48a32 32 0 0 0 -32-32h-64a32 32 0 0 1 32 32v48a32 32 0 0 1 -32 32z" fill="#f35244"/><path d="m480 128h-40.022a39.788 39.788 0 0 0 8.022-24v-48a40.045 40.045 0 0 0 -40-40h-66.33a55.7 55.7 0 0 0 -50.1 30.953l-8 16 14.312 7.154 8-16a39.788 39.788 0 0 1 35.788-22.107h2.33a24.028 24.028 0 0 1 24 24v8.285a55.651 55.651 0 0 0 -44.426 30.668l-16.519 33.047h-19.055v-40a8 8 0 0 0 -8-8h-43.055l-16.52-33.047a55.7 55.7 0 0 0 -50.095-30.953h-66.33a40.045 40.045 0 0 0 -40 40v48a39.788 39.788 0 0 0 8.022 24h-40.022a8 8 0 0 0 -8 8v64a8 8 0 0 0 8 8h88v2.385l-31.373 74.515a8 8 0 0 0 10.344 10.532l21.029-8.416v192.984h-48v-256h-16v264a8 8 0 0 0 8 8h384a8 8 0 0 0 8-8v-280h24a8 8 0 0 0 8-8v-64a8 8 0 0 0 -8-8zm-72-96a24.028 24.028 0 0 1 24 24v48a24.028 24.028 0 0 1 -24 24h-32.022a39.788 39.788 0 0 0 8.022-24v-48a39.788 39.788 0 0 0 -8.022-24zm-70.115 70.107a39.75 39.75 0 0 1 30.115-21.707v23.6a24.028 24.028 0 0 1 -24 24h-19.057zm8.8 41.893 54.515 129.463-22.228-8.891a8 8 0 0 0 -9.831 3.312l-15.783 26.305-61.441-150.189zm-109.317 0h10.632v48h-30.266zm37.258 0 19.637 48h-30.263v-48zm-10.626 64h36.811l11.189 27.351v244.649h-48zm8-80h-32v-32h32zm-101.67-96a39.786 39.786 0 0 1 35.784 22.107l17.886 35.781v38.112h-19.055l-16.52-33.048a55.649 55.649 0 0 0 -44.425-30.667v-8.285a24.028 24.028 0 0 1 24-24zm-26.33 72v-23.6a39.747 39.747 0 0 1 30.114 21.711l12.943 25.889h-19.057a24.028 24.028 0 0 1 -24-24zm-64 0v-48a24.028 24.028 0 0 1 24-24h32.022a39.788 39.788 0 0 0 -8.022 24v48a39.788 39.788 0 0 0 8.022 24h-32.022a24.028 24.028 0 0 1 -24-24zm-40 40h107.951l-20.21 48h-87.741zm125.312 0h54.771l-61.44 150.189-15.783-26.305a8 8 0 0 0 -9.831-3.312l-22.229 8.891zm-29.312 336v-192.451l17.14 28.567a8 8 0 0 0 6.86 3.884q.3 0 .61-.023a8 8 0 0 0 6.8-4.948l16.59-40.567v205.538zm112 0h-48v-244.649l11.189-27.351h36.811zm80 0v-205.538l16.6 40.567a8 8 0 0 0 6.8 4.948q.306.023.61.023a8 8 0 0 0 6.858-3.884l17.132-28.567v192.451zm112 0h-48v-192.984l21.029 8.412a8 8 0 0 0 10.344-10.528l-31.373-74.515v-2.385h48zm32-288h-87.741l-20.21-48h107.951z"/></g></svg>