<svg height="512" viewBox="0 0 512 512" width="512" xmlns="http://www.w3.org/2000/svg"><g id="Filled_outline" data-name="Filled outline"><path d="m344 144-78.14-37.023-14.511 29.023 68.651 32 24 40v24l16 16 24-16z" fill="#fec093"/><path d="m248 216v-40a31.9 31.9 0 0 1 -22.63-9.37l-.17-.17a22.723 22.723 0 0 1 -1.06-30.46 20.072 20.072 0 0 1 1.4-1.54l22.46-22.46h32l20.57 64 11.43 40z" fill="#fec093"/><path d="m300.57 176h-52.57a31.9 31.9 0 0 1 -22.63-9.37l-.17-.17a22.723 22.723 0 0 1 -1.06-30.46h6.56c15.11 0 56.139-2.722 56.139-2.722z" fill="#d3669a"/><path d="m240 24h36.974c15.548 0 30.225 7.978 39.771 21.619l35.255 50.381h-19.588c-14.952 0-29.133-7.382-38.7-20.15l-21.712-27.85h-32z" fill="#f07800"/><path d="m280 112h-32l-8-16h-16a8 8 0 0 1 -8-8v-11.16l-8-8 8-16a28.741 28.741 0 0 1 13.66-24.89 27.991 27.991 0 0 1 16.5-3.88 29.115 29.115 0 0 1 26.86 26.58c.68 8.56-3.71 20.48-9.02 26.19z" fill="#fec093"/><path d="m264 76.84c-29.17-11.66-33.69-38.73-34.34-48.89a27.991 27.991 0 0 1 16.5-3.88 29.115 29.115 0 0 1 26.86 26.58c.68 8.56-3.71 20.48-9.02 26.19z" fill="#f98500"/><path d="m416 376-16 24-72-56-30.86-61.71-17.14-34.29-13.68 35.9-50.32 132.1-24-16 38.6-126.82 17.4-57.18h64l20.91 54.36 19.09 49.64z" fill="#fec9a3"/><path d="m332.91 270.36-35.77 11.93-17.14-34.29-13.68 35.9-35.72-10.72 17.4-57.18h64z" fill="#b281c7"/><path d="m270.2 112a15.879 15.879 0 0 0 -14.2 8.778l-26.418 50.757-53.582-19.535-8-16-24-8-8 40 88 32c10.457 4.753 24.3-.078 29.708-10.213l30.506-54.435a15.879 15.879 0 0 0 -14.014-23.352z" fill="#fec9a3"/><path d="m152.216 406.631 39.784-6.631 24 16-8.186 24-56.373-14.134a9.832 9.832 0 0 1 -7.441-9.537 9.832 9.832 0 0 1 8.216-9.698z" fill="#d3669a"/><path d="m416 376 24 16-25.919 42.866a10.639 10.639 0 0 1 -9.1 5.134 10.639 10.639 0 0 1 -10.432-12.725l5.451-27.275z" fill="#d3669a"/><g fill="#b0b0ae"><path d="m488 464a24 24 0 0 1 -24 24h-416a24 24 0 0 1 0-48h416a24.006 24.006 0 0 1 24 24z"/><rect height="32" rx="16" width="136" x="112" y="232"/><path d="m86.321 137.437a15.889 15.889 0 0 0 -20.732-8.181 15.453 15.453 0 0 0 -8.313 20.4l43.472 100.056a15.755 15.755 0 0 0 20.561 8.243 15.755 15.755 0 0 0 8.34-20.8z"/></g><path d="m160 232h-35.738a16 16 0 0 0 -15.45 11.84l-52.812 196.16h48z" fill="#e0e0de"/><path d="m488 464a24 24 0 0 1 -24 24h-236.28a834.542 834.542 0 0 0 106.72-48h129.56a24.006 24.006 0 0 1 24 24z" fill="#a3a3a1"/><path d="m464 432h-38.838l21.684-35.861a8 8 0 0 0 -2.408-10.8l-23.566-15.71-62.115-54.352-18.365-47.75c-.006-.014-.009-.03-.015-.044l-20.777-54.022-11.337-39.661c-.025-.084-.05-.168-.076-.251l-.843-2.623 7.056 3.289 21.6 36v21.785a8 8 0 0 0 2.343 5.657l16 16a8 8 0 0 0 10.095 1l24-16a8 8 0 0 0 2.845-9.967l-40-88a8 8 0 0 0 -3.857-3.918l-60.384-28.61-13.778-30.282a48.11 48.11 0 0 0 4.633-9.3l9.458 12.131c11.122 14.802 27.539 23.289 45.055 23.289h19.59a8 8 0 0 0 6.555-12.587l-35.255-50.378c-10.968-15.676-28.286-25.035-46.393-25.035 0 0-29.7.125-30.188.092a35.631 35.631 0 0 0 -27.083 9.45 37.238 37.238 0 0 0 -11.584 25.305l-7.207 14.413a8 8 0 0 0 1.5 9.235l5.655 5.656v15.849a8 8 0 0 0 8 8h19.056l3.21 6.42-18.383 18.38a27.7 27.7 0 0 0 -1.917 2.11 30.807 30.807 0 0 0 -6.7 25.431l-29.539-10.769-6.576-13.153a8 8 0 0 0 -4.625-4.011l-24-8a8 8 0 0 0 -10.375 6.02l-8 40a8 8 0 0 0 5.111 9.088l87.738 31.905a29.246 29.246 0 0 0 11.792 2.429 32.111 32.111 0 0 0 7.21-.845v7a8 8 0 0 0 8 8h58.506l15.931 41.42-21.239 7.075-14.041-28.081a8 8 0 0 0 -14.632.728l-13.679 35.9-46.754 122.734-10.709-7.139 33.586-110.342-15.307-4.659-33.873 111.283-34.891 5.816a17.834 17.834 0 0 0 -5.583 33.26h-30.879l43.078-160h74.484c.709 0 1.416-.03 2.1-.09a24.145 24.145 0 0 0 21.9-23.91 23.9 23.9 0 0 0 -7.022-16.977 21.913 21.913 0 0 0 -1.958-1.743 24.087 24.087 0 0 0 -15.02-5.28h-99.344l-39-89.747a23.925 23.925 0 0 0 -31.171-12.367 23.511 23.511 0 0 0 -14.485 21.674 23.083 23.083 0 0 0 1.942 9.288l43.476 100.072a23.907 23.907 0 0 0 3.227 5.336l-46.776 173.744h-1.869a32 32 0 0 0 0 64h416a32 32 0 0 0 0-64zm-56.765-1.273a2.652 2.652 0 0 1 -2.257 1.273 2.639 2.639 0 0 1 -2.588-3.156l5.144-25.723 10.685-16.027 10.974 7.317zm-179.049-273.837a14.962 14.962 0 0 1 .232-12.89h2.282c1.449 0 2.885-.079 4.309-.22zm145.714 72.227-12.882 8.589-9.018-9.019v-20.687a8.009 8.009 0 0 0 -1.14-4.116l-24-40a8 8 0 0 0 -3.481-3.135l-22.707-10.582-6.632-20.638c.008-.112.018-.224.024-.336l43.865 20.783zm-133.115-196.833 6.381-.05a21.082 21.082 0 0 1 17.881 19.054c.369 4.646-1.427 10.812-3.79 15.41-16.175-8.948-21.364-24.028-22.987-33.84a20.077 20.077 0 0 1 2.515-.574zm36.185-.284c13.016 0 25.123 6.636 33.216 18.207l26.451 37.793h-4.227c-12.454 0-24.226-6.177-32.3-16.948-.03-.04-.06-.081-.091-.121l-19.627-25.176a36.728 36.728 0 0 0 -5.861-13.736zm-52.97 56v-11.162a8 8 0 0 0 -2.343-5.657l-3.923-3.923 5.421-10.842a7.994 7.994 0 0 0 .845-3.578 22.473 22.473 0 0 1 1.109-7c4.155 12.624 13.2 28.153 32.893 37.134l9.568 21.028h-14.626l-5.789-11.578a8 8 0 0 0 -7.155-4.422zm3.311 104.717c-.19-.086-.382-.164-.577-.236l-81.542-29.651 4.875-24.375 12.259 4.087 6.519 13.036a8 8 0 0 0 4.415 3.938l53.582 19.535a8 8 0 0 0 9.837-3.822l26.421-50.758.058-.116a7.838 7.838 0 0 1 7.042-4.355 7.757 7.757 0 0 1 6.757 3.826 7.945 7.945 0 0 1 1.074 5.109c-.015.083-.03.164-.042.247a7.98 7.98 0 0 1 -.8 2.343l-30.459 54.351c-.028.049-.054.1-.081.146-3.418 6.406-12.815 9.659-19.338 6.695zm28.689 15.283v-7.943a29.047 29.047 0 0 0 4.724-6.427l23.585-42.084 8.6 26.778 8.485 29.676zm72.186 72.369 16.347 42.5a8 8 0 0 0 2.2 3.149l58.718 51.382-4.889 7.334-2.444 3.667-63.774-49.6-25.92-51.84zm-174.656 134.153 36.663-6.111 16.247 10.832-3.822 11.207-49.232-12.344a1.832 1.832 0 0 1 .143-3.584zm70 4.193 57.463-150.843 39.856 79.706a8 8 0 0 0 2.244 2.737l68.1 52.964-4.493 22.427a18.652 18.652 0 0 0 -.177 6.294h-167.523zm13.5-176.94.114.09a5.57 5.57 0 0 1 .514.462 8.011 8.011 0 0 1 -4.936 13.643c-.235.02-.473.03-.717.03h-70.182l4.308-16h65.869a7.925 7.925 0 0 1 5.025 1.775zm-172.42-95.319a7.192 7.192 0 0 1 -.61-2.9 7.548 7.548 0 0 1 4.7-6.928 7.874 7.874 0 0 1 10.287 4l36.895 84.906a24.077 24.077 0 0 0 -12.382 10.442zm51.926 99.461a8.008 8.008 0 0 1 7.724-5.917h25.3l-51.691 192h-31.431zm347.464 234.083h-416a16 16 0 0 1 0-32h416a16 16 0 0 1 0 32z"/></g></svg>