<svg height="512" viewBox="0 0 512 512" width="512" xmlns="http://www.w3.org/2000/svg"><g id="Filled_outline" data-name="Filled outline"><path d="m136 24h240v256h-240z" fill="#919c48"/><path d="m344 24h32v256h-32z" fill="#898f3d"/><path d="m240 280h32v192h-32z" fill="#ffb531"/><path d="m176 400h160v32h-160z" fill="#fcac1f"/><path d="m240 280-11.08 32-5.54 16-24.92 72-11.08 32-19.38 56h-32l55.38-160 5.54-16 11.08-32z" fill="#ffb531"/><path d="m376 488h-32l-19.38-56-11.08-32-24.92-72-5.54-16-11.08-32h32l11.08 32 5.54 16z" fill="#ffb531"/><path d="m301.67 181.18a39.867 39.867 0 0 0 -29.67-13.18h-16v-32h-32v32h-16a40.011 40.011 0 0 0 -40 40v72h144v-72a39.847 39.847 0 0 0 -10.33-26.82z" fill="#fec093"/><path d="m312 208v72h-144v-72a39.847 39.847 0 0 1 10.33-26.82 72.022 72.022 0 0 0 123.34 0 39.847 39.847 0 0 1 10.33 26.82z" fill="#4d5e78"/><path d="m224 280h-40a16 16 0 0 1 -16-16v-16h56z" fill="#c84431"/><path d="m224 248h32v32h-32z" fill="#fec9a3"/><path d="m256 248h56a0 0 0 0 1 0 0v16a16 16 0 0 1 -16 16h-40a0 0 0 0 1 0 0v-32a0 0 0 0 1 0 0z" fill="#c84431"/><path d="m200 88h24a0 0 0 0 1 0 0v96a0 0 0 0 1 0 0 24 24 0 0 1 -24-24v-72a0 0 0 0 1 0 0z" fill="#c84431"/><rect fill="#fec9a3" height="80" rx="32" width="64" x="208" y="64"/><path d="m256 56h-24a32 32 0 0 0 -32 32h56v96h8a35.1 35.1 0 0 0 24-33.3v-62.7a32 32 0 0 0 -32-32z" fill="#c84431"/><path d="m176 280h168v32h-168z" fill="#ffb531"/><path d="m208 88h48v16h-48z" fill="#fec093"/><g fill="#fa9f0c"><path d="m196.92 312h32l-5.54 16h-32z"/><path d="m240 312h32v16h-32z"/><path d="m320.62 328h-32l-5.54-16h32z"/></g><path d="m352 312v-24h24a8 8 0 0 0 8-8v-256a8 8 0 0 0 -8-8h-240a8 8 0 0 0 -8 8v256a8 8 0 0 0 8 8h200v16h-168v8a8 8 0 0 0 8 8h9.686l-57.246 165.383a8 8 0 0 0 7.56 10.617h32a8 8 0 0 0 7.56-5.383l17.52-50.617h38.92v32a8 8 0 0 0 8 8h32a8 8 0 0 0 8-8v-32h38.92l17.52 50.617a8 8 0 0 0 7.56 5.383h32a8 8 0 0 0 7.56-10.617l-57.246-165.383h17.686a8 8 0 0 0 8-8zm-104 64v-56h16v72h-54.306l22.306-64.442v48.442zm32-48.442 22.306 64.442h-22.306zm-117.7 152.442h-15.07l55.382-160h15.07zm101.7-16h-16v-24h16zm-65.382-40 5.538-16h103.688l5.538 16zm166.148 56h-15.066l-55.386-160h15.07zm3.234-448v240h-16v-240zm-224 0h192v240h-17.376a23.889 23.889 0 0 0 1.376-8v-56a48.046 48.046 0 0 0 -26.472-42.9 43.1 43.1 0 0 0 2.472-14.4v-62.7a40.045 40.045 0 0 0 -40-40h-24a40.045 40.045 0 0 0 -40 40v72c0 .907.042 1.809.117 2.706a48.014 48.014 0 0 0 -32.117 45.294v56a23.889 23.889 0 0 0 1.376 8h-17.376zm136 192v16h-72v-16h-16v16h-16v-32a31.938 31.938 0 0 1 2.626-12.691q2.286 2.732 4.808 5.258a80.021 80.021 0 0 0 117.949-5.236 31.936 31.936 0 0 1 2.617 12.669v32h-8v-16zm-72-88.048a40.048 40.048 0 0 0 8 8.031v29.853a16.041 16.041 0 0 1 -6.965-8.175 15.858 15.858 0 0 1 -1.035-5.661zm20.006-3.157a24.1 24.1 0 0 1 -12.006-20.795v-16h32v38.623a24 24 0 0 1 -19.994-1.828zm35.994 35.205v-80a8 8 0 0 0 -8-8h-46.629a24.042 24.042 0 0 1 22.629-16h24a24.027 24.027 0 0 1 24 24v62.7a27.059 27.059 0 0 1 -16 24.723zm-66.58 9.8a32.2 32.2 0 0 0 26.58 14.2 8 8 0 0 0 8-8v-32.813a39.767 39.767 0 0 0 16 0v32.813a8 8 0 0 0 8 8h8a7.993 7.993 0 0 0 2.529-.411 43.035 43.035 0 0 0 18.914-12.62 31.857 31.857 0 0 1 5.757 3.45 64.013 64.013 0 0 1 -96.453 6.835 64.676 64.676 0 0 1 -5.92-6.858 32.219 32.219 0 0 1 8.593-4.596zm-13.42 94.2a8.009 8.009 0 0 1 -8-8v-8h40v16zm48 0v-16h16v16zm32 0v-16h40v8a8.009 8.009 0 0 1 -8 8z"/></g></svg>