<svg height="512" viewBox="0 0 512 512" width="512" xmlns="http://www.w3.org/2000/svg"><g id="Filled_outline" data-name="Filled outline"><path d="m184 24h304v416h-304z" fill="#5ac6d4"/><path d="m456 88v352h-304v-416h240z" fill="#60d1e0"/><path d="m456 102.72v337.28h-304v-77.46c114-35.55 230.35-113.48 304-259.82z" fill="#5ac6d4"/><path d="m392 24v64h64z" fill="#8adbe6"/><path d="m322.068 68.033c17.065-1.9 28.208 17.819 18.069 31.967 10.139 14.148-1 33.863-18.069 31.967a19.581 19.581 0 0 1 -36.136 0c-17.065 1.9-28.208-17.819-18.069-31.967-10.139-14.148 1-33.863 18.069-31.967a19.581 19.581 0 0 1 36.136 0z" fill="#3fb5c4"/><path d="m312 176v111.83a200 200 0 0 1 -95.71 170.66l-48.29 29.51-48.29-29.51a200.015 200.015 0 0 1 -95.71-170.66v-111.83h4.53a263.138 263.138 0 0 0 139.47-40 263.06 263.06 0 0 0 66.92 29.8 262.642 262.642 0 0 0 62.9 10.02q4.815.18 9.65.18z" fill="#348fd9"/><path d="m312 176v111.83a200 200 0 0 1 -95.71 170.66l-48.29 29.51-48.29-29.51a199.875 199.875 0 0 1 -63.94-62.5c94-38.85 183.71-107.56 242.05-220.17q4.815.18 9.65.18z" fill="#3086cd"/><path d="m136.4 431.185a168 168 0 0 1 -80.4-143.352v-81.11a294.716 294.716 0 0 0 112-33.752 294.716 294.716 0 0 0 112 33.752v81.11a168 168 0 0 1 -80.4 143.352l-31.6 19.315z" fill="#2d7dbf"/><path d="m488 16h-336a8 8 0 0 0 -8 8v88h16v-80h224v56a8 8 0 0 0 8 8h56v336h-168v16h208a8 8 0 0 0 8-8v-416a8 8 0 0 0 -8-8zm-88 27.313 36.687 36.687h-36.687zm80 388.687h-16v-344a8 8 0 0 0 -2.343-5.657l-50.343-50.343h68.686z"/><path d="m259.953 126.321a27.355 27.355 0 0 0 21.29 13.664 27.559 27.559 0 0 0 45.514 0 27.356 27.356 0 0 0 21.29-13.664 28.1 28.1 0 0 0 1.325-26.321 28.1 28.1 0 0 0 -1.325-26.321 27.355 27.355 0 0 0 -21.29-13.664 27.559 27.559 0 0 0 -45.514 0 27.356 27.356 0 0 0 -21.29 13.664 28.1 28.1 0 0 0 -1.325 26.321 28.1 28.1 0 0 0 1.325 26.321zm14.413-30.981a12.356 12.356 0 0 1 -.607-13.575 11.361 11.361 0 0 1 11.289-5.781 8 8 0 0 0 8.228-4.78 11.584 11.584 0 0 1 21.448 0 7.991 7.991 0 0 0 8.228 4.78 11.361 11.361 0 0 1 11.289 5.781 12.356 12.356 0 0 1 -.607 13.575 8 8 0 0 0 0 9.32 12.356 12.356 0 0 1 .607 13.575 11.359 11.359 0 0 1 -11.289 5.781 7.983 7.983 0 0 0 -8.228 4.78 11.584 11.584 0 0 1 -21.448 0 8 8 0 0 0 -7.341-4.829 7.806 7.806 0 0 0 -.887.049 11.361 11.361 0 0 1 -11.289-5.781 12.356 12.356 0 0 1 .607-13.575 8 8 0 0 0 0-9.32z"/><path d="m336 296h80v16h-80z"/><path d="m336 256h80v16h-80z"/><path d="m336 216h80v16h-80z"/><path d="m336 176h80v16h-80z"/><path d="m328 336h88v16h-88z"/><path d="m312 376h104v16h-104z"/><path d="m320 287.833v-111.833a8 8 0 0 0 -8-8h-4.528a254.886 254.886 0 0 1 -135.232-38.784 8 8 0 0 0 -8.48 0 254.886 254.886 0 0 1 -135.232 38.784h-4.528a8 8 0 0 0 -8 8v111.833a208 208 0 0 0 99.539 177.482l48.29 29.511a8 8 0 0 0 8.342 0l48.29-29.511a208 208 0 0 0 99.539-177.482zm-107.881 163.83-44.119 26.961-44.119-26.961a192 192 0 0 1 -91.881-163.83v-103.855a270.856 270.856 0 0 0 136-38.6 270.856 270.856 0 0 0 136 38.6v103.855a192 192 0 0 1 -91.881 163.83z"/><path d="m280.743 198.757a285.32 285.32 0 0 1 -108.961-32.836 8 8 0 0 0 -7.564 0 285.32 285.32 0 0 1 -108.961 32.836 8 8 0 0 0 -7.257 7.966v81.11a176 176 0 0 0 84.225 150.178l31.6 19.313a8 8 0 0 0 8.342 0l31.6-19.313a176 176 0 0 0 84.233-150.178v-81.11a8 8 0 0 0 -7.257-7.966zm-8.743 89.076a160 160 0 0 1 -76.568 136.525l-27.432 16.764-27.432-16.764a160 160 0 0 1 -76.568-136.525v-73.908a301.032 301.032 0 0 0 104-31.909 301.032 301.032 0 0 0 104 31.909z"/><path d="m160 200h16v16h-16z"/><path d="m80 232h16v16h-16z"/><path d="m240 232h16v16h-16z"/><path d="m160 400h16v16h-16z"/><path d="m224 336h16v16h-16z"/><path d="m96 336h16v16h-16z"/></g></svg>