<svg height="512" viewBox="0 0 512 512" width="512" xmlns="http://www.w3.org/2000/svg"><g id="Filled_outline" data-name="Filled outline"><path d="m106.422 24h317.578a0 0 0 0 1 0 0v448a0 0 0 0 1 0 0h-336a0 0 0 0 1 0 0v-429.578a18.422 18.422 0 0 1 18.422-18.422z" fill="#fa6d00"/><path d="m104 456h320a0 0 0 0 1 0 0v32a0 0 0 0 1 0 0h-320a16 16 0 0 1 -16-16 16 16 0 0 1 16-16z" fill="#ffb531"/><g fill="#f98500"><path d="m120 56h32v96h-32z"/><path d="m184 56h32v96h-32z"/><path d="m296 56h32v96h-32z"/><path d="m360 56h32v96h-32z"/></g><path d="m336 144a40.606 40.606 0 0 0 -4.436.25 32 32 0 0 0 -27.564-48.25c-.226 0-.448.012-.673.017a48 48 0 0 0 -95.327 7.983 32 32 0 0 0 -26.452 50.008 39.991 39.991 0 0 0 26.452 69.992h128a40 40 0 0 0 0-80z" fill="#ffb531"/><path d="m184 368-8 24 56 24h24l64-24v-24z" fill="#f35244"/><path d="m176 392-16 64h64l8-40z" fill="#fec093"/><path d="m256 416v40h64v-64z" fill="#fec093"/><path d="m320 368-24-48 16-56v-64h-32v-48h-48v48h-32v64l16 56-32 48z" fill="#fec093"/><path d="m256 88a32.213 32.213 0 0 0 -4.134.275 31.995 31.995 0 0 1 -27.866 47.725v8a32 32 0 0 0 32 32 32 32 0 0 0 32-32v-24a32 32 0 0 0 -32-32z" fill="#fec9a3"/><path d="m402.346 279.115-36.2-56.885a48 48 0 0 0 -40.5-22.23h-13.646v48h24l32 48-40 32-16-16-32 8 8 32h24a17.26 17.26 0 0 0 23.7 7.434l53.449-29.154a36.165 36.165 0 0 0 13.193-51.165z" fill="#fec093"/><path d="m128 200 56-72v-24h-32l-54.916 68.644a41.462 41.462 0 0 0 -9.084 25.898 41.458 41.458 0 0 0 41.458 41.458h46.542l40 24v-64z" fill="#fec093"/><rect fill="#f35244" height="64" rx="32" width="128" x="192" y="232"/><path d="m312 356h-17.74a11.977 11.977 0 0 1 -11.648-9.115l-5.245-21.173a4 4 0 0 1 7.766-1.924l5.245 21.174a3.991 3.991 0 0 0 3.882 3.038h17.74a4 4 0 0 1 0 8z" fill="#feb784"/><path d="m352 456 72-104-104 40a57.889 57.889 0 0 1 32 51.777z" fill="#4db7e5"/><path d="m352 456 72-104v104z" fill="#348fd9"/><path d="m424 16h-317.58a26.45 26.45 0 0 0 -26.42 26.42v104.58h16v-104.58a10.433 10.433 0 0 1 10.42-10.42h309.58v314.505l-98.872 38.028a8 8 0 0 0 -.706 14.622 49.618 49.618 0 0 1 27.578 44.622v4.223h-16v-32h-16v32h-48v-26.457l37.476-14.053-5.618-14.98-41.308 15.49h-20.907l-47.726-20.454 3.849-11.546h122.234v-11.721a25.184 25.184 0 0 0 27.53 2.174l53.452-29.15a44.165 44.165 0 0 0 16.118-62.478l-36.2-56.886c-.392-.617-.8-1.225-1.223-1.83a48.015 48.015 0 0 0 -28.595-79.593 39.938 39.938 0 0 0 -15.206-40.6l-.157-.114a39.535 39.535 0 0 0 -17.928-7.39 56.007 56.007 0 0 0 -100.351-15.534q-.138.2-.264.4c-.34.508-.673 1.031-.991 1.56-.11.17-.212.343-.308.519a55.746 55.746 0 0 0 -7.4 21.351 39.576 39.576 0 0 0 -9.636 3.158 7.986 7.986 0 0 0 -6.841-3.866h-32a8 8 0 0 0 -6.246 3l-54.924 68.646a49.683 49.683 0 0 0 -10.83 30.894 49.445 49.445 0 0 0 49.46 49.46h44.323l11.3 6.783a39.9 39.9 0 0 0 15.94 41.93l6.267 21.928-29.947 44.921c-.094.142-.167.293-.251.438s-.161.265-.231.4a7.888 7.888 0 0 0 -.374.881c-.023.063-.057.12-.078.184l-8 24c-.045.134-.076.269-.113.4-.018.063-.042.122-.058.186l-14.484 57.949h-49.754a23.889 23.889 0 0 0 -8 1.376v-202.376h-16v225a24.028 24.028 0 0 0 24 24h320a8 8 0 0 0 8-8v-464a8 8 0 0 0 -8-8zm-8 361.61v70.39h-48.731zm-78.745 16.325 65.4-25.153-43.707 63.133a65.312 65.312 0 0 0 -21.693-37.98zm-103.496 54.065 4.8-24h9.441v24zm94.241-184a40.028 40.028 0 0 0 -.805-8h4.524l25.556 38.335-28.681 22.945-10.937-10.937a8 8 0 0 0 -7.6-2.105l-1.331.333 2.247-7.859a39.972 39.972 0 0 0 17.027-32.712zm-127.322-150.864a23.885 23.885 0 0 1 7.322-1.136 8 8 0 0 0 8-8 39.871 39.871 0 0 1 5.718-20.614c.044-.073.087-.146.129-.22.22-.37.455-.739.7-1.1l.03-.045c.052-.076.1-.153.152-.231a40 40 0 0 1 72.715 15.554 8.008 8.008 0 0 0 8.245 6.664c.1 0 .206-.012.314-.012a23.726 23.726 0 0 1 14.3 4.74c.069.052.139.1.21.152a23.975 23.975 0 0 1 6.164 31.28 8 8 0 0 0 7.755 12.03 32.933 32.933 0 0 1 3.568-.198 31.992 31.992 0 0 1 24.707 52.325 56.123 56.123 0 0 0 -35.057-12.325h-37.65v-24.028a39.789 39.789 0 0 0 8-23.972v-24a39.956 39.956 0 0 0 -45.158-39.66 8 8 0 0 0 -5.94 11.872 23.995 23.995 0 0 1 -20.902 35.788 8 8 0 0 0 -8 8v8a39.789 39.789 0 0 0 8 23.972v24.028h-46.988a32 32 0 0 1 9.83-31.991 8 8 0 0 0 1.317-10.506 23.966 23.966 0 0 1 -3.734-9.023l5.888-7.567a8 8 0 0 0 1.687-4.913v-9.874a24.041 24.041 0 0 1 8.678-4.99zm31.322 30.864v-.8a39.993 39.993 0 0 0 31.411-46.025 24.042 24.042 0 0 1 16.589 22.825v24a24 24 0 0 1 -48 0zm-71.325 48h-16.318l18.194-23.389a47.71 47.71 0 0 0 -1.876 23.389zm19.442 41.141a8.006 8.006 0 0 0 -4.117-1.141h-46.54a33.449 33.449 0 0 1 -33.46-33.46 33.62 33.62 0 0 1 7.327-20.9l52.518-65.64h20.155v13.254l-6.243 8.023c-.064.082-.125.164-.186.248l-47.885 61.563a8 8 0 0 0 6.314 12.912h104a8 8 0 0 0 8-8v-19.35a39.884 39.884 0 0 0 32 0v19.35a8 8 0 0 0 8 8h45.65a40.054 40.054 0 0 1 29.318 12.794 39.916 39.916 0 0 1 4.433 5.731l36.2 56.89a28.174 28.174 0 0 1 -10.281 39.842l-53.451 29.149a9.256 9.256 0 0 1 -12.714-3.984 8 8 0 0 0 -7.155-4.422h-17.754l-4.546-18.18 19.845-4.961 12.8 12.8a8 8 0 0 0 10.654.59l40-32a8 8 0 0 0 1.659-10.685l-32-48a8 8 0 0 0 -6.658-3.564h-16.022a39.962 39.962 0 0 0 -31.978-16h-64a39.966 39.966 0 0 0 -32.125 16.2zm43.883 6.859h64a24 24 0 0 1 0 48h-64a24 24 0 0 1 0-48zm-1.344 84.438a8 8 0 0 0 1.036-6.636l-4.012-14.039a40.293 40.293 0 0 0 4.32.237h64a40.288 40.288 0 0 0 4.319-.237l-1.512 5.289-12.748 3.187a8 8 0 0 0 -5.82 9.7l8 32a8 8 0 0 0 7.761 6.061h-89.052zm-41.174 78.616 41.4 17.743-5.441 27.203h-47.195zm234.518 76.946h-312a8 8 0 0 1 0-16h312z"/><path d="m160 80v-24a8 8 0 0 0 -8-8h-32a8 8 0 0 0 -8 8v48h16v-40h16v16z"/><path d="m192 64h16v-16h-24a8 8 0 0 0 -8 8v24h16z"/><path d="m336 80v-24a8 8 0 0 0 -8-8h-24v16h16v16z"/><path d="m392 160a8 8 0 0 0 8-8v-96a8 8 0 0 0 -8-8h-32a8 8 0 0 0 -8 8v72h16v-64h16v96z"/></g></svg>