<svg id="Layer_1" enable-background="new 0 0 512 512" viewBox="0 0 512 512" xmlns="http://www.w3.org/2000/svg"><g id="Filled_outline"><path d="m224 152h240v240h-240z" fill="#e0e0de"/><path d="m464 248.5v143.5h-146z" fill="#d6d6d4"/><path d="m464 221.3v32l-120-53.3-120 53.3v-32l120-53.3z" fill="#d6d6d4"/><path d="m344 152-144 64v-128l144-64z" fill="#f35244"/><path d="m344 152 144 64v-128l-144-64z" fill="#d63f30"/><path d="m200 216v32l144-64 144 64v-32l-144-64z" fill="#bf2d21"/><path d="m384 24h64v96h-64z" fill="#bf2d21"/><path d="m384 24h64v40h-64z" fill="#f35244"/><path d="m360 280h64v112h-64z" fill="#92563a"/><path d="m24 280h288v144h-288z" fill="#7eb457"/><path d="m312 424h-216l144-144h72z" fill="#79ad54"/><path d="m256 392h-176c0-13.3-10.7-24-24-24v-32c13.3 0 24-10.7 24-24h176c0 13.3 10.7 24 24 24v32c-13.3 0-24 10.7-24 24z" fill="#5f9548"/><circle cx="168" cy="352" fill="#7eb457" r="40"/><path d="m24 424h288v32h-288z" fill="#699c46"/><path d="m24 456h288v32h-288z" fill="#5f9548"/><path d="m152 280h32v208h-32z" fill="#ffb531"/><path d="m360 280h64v16h-64z" fill="#804a32"/><path d="m312 280h16v112h-16z" fill="#d6d6d4"/><g><path d="m491.2 80.7-35.2-15.7v-41c0-4.4-3.6-8-8-8h-64c-4.4 0-8 3.6-8 8v5.5l-28.8-12.8c-2.1-.9-4.4-.9-6.5 0l-144 64c-2.9 1.3-4.8 4.1-4.8 7.3v160c0 4.4 3.6 8 8 8 1.1 0 2.2-.2 3.2-.7l12.8-5.7v6.4h16v-13.5l112-49.8 112 49.8v141.5h-24v-104c0-4.4-3.6-8-8-8h-64c-4.4 0-8 3.6-8 8v104h-16v16h128c4.4 0 8-3.6 8-8v-142.4l12.8 5.7c4 1.8 8.8 0 10.6-4.1.5-1 .7-2.1.7-3.2v-160c0-3.2-1.9-6-4.8-7.3zm-123.2 303.3v-96h48v96zm24-312h48v40h-48zm0-40h48v24h-48zm-40 4.3 24 10.7v73c0 4.4 3.6 8 8 8h64c4.4 0 8-3.6 8-8v-37.5l24 10.7v110.5l-128-56.9zm-144 56.9 128-56.9v110.5l-128 56.9zm272 142.5-132.8-59c-2.1-.9-4.4-.9-6.5 0l-132.7 59v-14.5l136-60.4 136 60.4z"/><path d="m384 328h16v16h-16z"/><path d="m224 104h24v16h-24z"/><path d="m256 136h24v16h-24z"/><path d="m296 80h24v16h-24z"/><path d="m424 144h24v16h-24z"/><path d="m312 272h-160c-4.4 0-8 3.6-8 8v24h-64c-4.4 0-8 3.6-8 8 0 8.8-7.2 16-16 16-4.4 0-8 3.6-8 8v32c0 4.4 3.6 8 8 8 8.8 0 16 7.2 16 16 0 4.4 3.6 8 8 8h64v16h-112v-128h96v-16h-104c-4.4 0-8 3.6-8 8v208c0 4.4 3.6 8 8 8h288c4.4 0 8-3.6 8-8v-208c0-4.4-3.6-8-8-8zm-63 112h-45.2c16.3-18.2 16.3-45.8 0-64h45.2c2.9 11.3 11.7 20.1 23 23v18c-11.3 2.9-20.1 11.7-23 23zm-57-10.8v-42.3c10.7 12 10.7 30.2 0 42.3zm0 58.8h112v16h-112zm112-16h-112v-16h64c4.4 0 8-3.6 8-8 0-8.8 7.2-16 16-16 4.4 0 8-3.6 8-8v-32c0-4.4-3.6-8-8-8-8.8 0-16-7.2-16-16 0-4.4-3.6-8-8-8h-64v-16h112zm-160-85.2v42.3c-10.7-12-10.7-30.2 0-42.3zm-65.4 38.6c-4-4-9.1-6.9-14.6-8.4v-18c11.3-2.9 20.1-11.7 23-23h45.2c-16.3 18.2-16.3 45.8 0 64h-45.2c-1.4-5.5-4.3-10.6-8.4-14.6zm65.4 62.6v16h-112v-16zm-112 32h112v16h-112zm128 16v-192h16v192zm144 0h-112v-16h112z"/><path d="m88 344h16v16h-16z"/><path d="m232 344h16v16h-16z"/></g></g></svg>