<svg height="512" viewBox="0 0 512 512" width="512" xmlns="http://www.w3.org/2000/svg"><g id="Filled_outline" data-name="Filled outline"><path d="m464 184v288a16 16 0 0 1 -16 16h-384a16 16 0 0 1 -16-16v-288z" fill="#4d5e78"/><path d="m464 214.65v257.35a16 16 0 0 1 -16 16h-330.57z" fill="#7eb457"/><path d="m464 214.65v257.35a16 16 0 0 1 -16 16h-330.57z" fill="#435269"/><path d="m48 184h416v64h-416z" fill="#e0e0de"/><path d="m49.518 73.816h416v64h-416z" fill="#e0e0de" transform="matrix(.97 -.244 .244 .97 -18.042 66.078)"/><g fill="#4d5e78"><path d="m88 248 48-64h64l-48 64z"/><path d="m344 248 48-64h64l-48 64z"/><path d="m216 248 48-64h64l-48 64z"/><path d="m86.789 115.803 62.174 50.344 62.063-15.626-62.174-50.344z"/><path d="m335.042 53.299 62.173 50.343 62.063-15.626-62.173-50.343z"/><path d="m210.916 84.551 62.173 50.344 62.063-15.626-62.173-50.344z"/></g><path d="m48 120v128h48l48-64-48-64z" fill="#fa9f0c"/><path d="m72 144h16v16h-16z" fill="#ffc361"/><path d="m72 208h16v16h-16z" fill="#ffc361"/><path d="m408 456h-304a8 8 0 0 1 -8-8v-160a8 8 0 0 1 8-8h304a8 8 0 0 1 8 8v160a8 8 0 0 1 -8 8zm-296-16h288v-144h-288z" fill="#cfcfcd"/><path d="m48 248h416v24h-416z" fill="#435269"/><path d="m150.8 173.929c.037-.009.075-.012.112-.021l318.088-80.092a8 8 0 0 0 5.8-9.711l-15.63-62.059a8 8 0 0 0 -9.71-5.8l-380.333 95.754h-21.127a8 8 0 0 0 -8 8v128a8 8 0 0 0 8 8h408v216a8.009 8.009 0 0 1 -8 8h-384a8.009 8.009 0 0 1 -8-8v-200h-16v200a24.027 24.027 0 0 0 24 24h384a24.027 24.027 0 0 0 24-24v-288a8 8 0 0 0 -8-8h-316l-.862-1.149zm-3.878-65.015 46.632 37.752-42.675 10.744-42.858-34.71-2.516-3.355zm62.068-15.628 46.627 37.756-42.665 10.741-46.633-37.754zm62.063-15.627 46.629 37.757-42.669 10.742-46.628-37.758zm62.063-15.626 46.63 37.758-42.669 10.742-46.629-37.757zm62.063-15.626 46.63 37.758-42.668 10.743-46.63-37.758zm60.848 28.683-41.453-33.566 31.032-7.813zm-368.027 164.91h-32v-112h36l42 56-42 56zm160-48-36 48h-44l36-48zm128 0-36 48h-44l36-48zm48 48 32-42.667v42.667zm16-48-36 48h-44l36-48zm-128 0-36 48h-44l36-48zm-164 48h-36l36-48h36z"/><path d="m72 144h16v16h-16z"/><path d="m72 208h16v16h-16z"/><path d="m408 456a8 8 0 0 0 8-8v-160a8 8 0 0 0 -8-8h-304a8 8 0 0 0 -8 8v160a8 8 0 0 0 8 8zm-296-160h288v144h-288z"/><path d="m200 320h176v16h-176z"/><path d="m136 320h48v16h-48z"/><path d="m136 360h240v16h-240z"/><path d="m136 400h240v16h-240z"/></g></svg>