<svg height="512" viewBox="0 0 512 512" width="512" xmlns="http://www.w3.org/2000/svg"><g id="Filled_outline" data-name="Filled outline"><path d="m243.029 179.029-83.029-83.029 49.112-6.139a17 17 0 0 0 -2.112-33.861h-191v96l131.029 123.029a16.972 16.972 0 0 0 12 4.971 16.971 16.971 0 0 0 12-28.971 16.972 16.972 0 0 0 12 4.971 16.971 16.971 0 0 0 12-28.971 16.972 16.972 0 0 0 12 4.971 16.971 16.971 0 0 0 12-28.971 16.972 16.972 0 0 0 12 4.971 16.971 16.971 0 0 0 12-28.971z" fill="#feb784"/><path d="m224 216a7.976 7.976 0 0 1 -5.657-2.343l-64-64a8 8 0 0 1 11.314-11.314l64 64a8 8 0 0 1 -5.657 13.657z" fill="#f7a468"/><path d="m200 240a7.976 7.976 0 0 1 -5.657-2.343l-64-64a8 8 0 0 1 11.314-11.314l64 64a8 8 0 0 1 -5.657 13.657z" fill="#f7a468"/><path d="m176 264a7.976 7.976 0 0 1 -5.657-2.343l-64-64a8 8 0 0 1 11.314-11.314l64 64a8 8 0 0 1 -5.657 13.657z" fill="#f7a468"/><circle cx="68" cy="332" fill="#804a32" r="44"/><path d="m440 216v160h-260a100 100 0 1 1 0-200h28l32-24 8 24h40a32 32 0 0 1 32 32v56a8 8 0 0 0 8 8h32l27.17-31.7a69.6 69.6 0 0 1 52.83-24.3z" fill="#fec9a3"/><path d="m261.657 213.657-11.314-11.314 4.687-4.687a30.426 30.426 0 0 0 8.97-21.656h16a46.325 46.325 0 0 1 -13.656 32.97z" fill="#feb784"/><path d="m256 376h-76a99.639 99.639 0 0 1 -70.62-29.2l-.09-.09a100.016 100.016 0 0 1 44.23-167.16 511.755 511.755 0 0 1 50.43 72.5l-11.95 11.95a22.627 22.627 0 1 0 32 32l1.83-1.83a532.1 532.1 0 0 1 30.17 81.83z" fill="#92563a"/><path d="m223.589 234.53-15.178-5.06.844-2.534a28.453 28.453 0 0 0 -6.912-29.279l11.314-11.314a44.368 44.368 0 0 1 10.777 45.657z" fill="#feb784"/><path d="m440 294.02v81.98h-98.86a462.721 462.721 0 0 0 98.86-81.98z" fill="#fec093"/><path d="m256 376h-76a99.639 99.639 0 0 1 -70.62-29.2 507.938 507.938 0 0 0 91.03-45.48 22.61 22.61 0 0 0 23.59-5.32l1.83-1.83a532.1 532.1 0 0 1 30.17 81.83z" fill="#875036"/><path d="m155.029 227.029-83.029-83.029 49.112-6.139a17 17 0 0 0 -2.112-33.861h-103v176l43.029 43.029a16.972 16.972 0 0 0 12 4.971 16.971 16.971 0 0 0 12-28.971 16.972 16.972 0 0 0 12 4.971 16.971 16.971 0 0 0 12-28.971 16.972 16.972 0 0 0 12 4.971 16.971 16.971 0 0 0 12-28.971 16.972 16.972 0 0 0 12 4.971 16.971 16.971 0 0 0 12-28.971z" fill="#fec9a3"/><g fill="#feb784"><path d="m136 264a7.976 7.976 0 0 1 -5.657-2.343l-64-64a8 8 0 0 1 11.314-11.314l64 64a8 8 0 0 1 -5.657 13.657z"/><path d="m112 288a7.976 7.976 0 0 1 -5.657-2.343l-64-64a8 8 0 0 1 11.314-11.314l64 64a8 8 0 0 1 -5.657 13.657z"/><path d="m88 312a7.976 7.976 0 0 1 -5.657-2.343l-64-64a8 8 0 0 1 11.314-11.314l64 64a8 8 0 0 1 -5.657 13.657z"/></g><path d="m48 376h440a0 0 0 0 1 0 0v80a0 0 0 0 1 0 0h-440a24 24 0 0 1 -24-24v-32a24 24 0 0 1 24-24z" fill="#f7afaf"/><path d="m424 200h64v256h-64z" fill="#e0e0de"/><path d="m408 376h16v80h-16z" fill="#f1a9a9"/><path d="m216 73a9 9 0 0 1 -7.882 8.922l-49.11 6.14a8 8 0 0 0 -4.665 13.6l48 48 11.314-11.314-36.434-36.434 32.877-4.114a25 25 0 0 0 -3.1-49.8h-191v16h191a9.01 9.01 0 0 1 9 9z"/><path d="m208.411 229.47 15.178 5.06.845-2.534a44.368 44.368 0 0 0 -10.777-45.653l-11.314 11.314a28.453 28.453 0 0 1 6.912 29.279z"/><path d="m488 192h-64a8 8 0 0 0 -8 8v168h-153.958a542.323 542.323 0 0 0 -28.957-77.2 8 8 0 0 0 -12.912-2.286l-1.83 1.83a14.627 14.627 0 1 1 -20.686-20.686l11.95-11.95a8 8 0 0 0 1.273-9.655 524.871 524.871 0 0 0 -42.805-63.281 92.958 92.958 0 0 1 11.925-.772h28a8 8 0 0 0 4.8-1.6l23.12-17.34 4.491 13.47a8 8 0 0 0 7.589 5.47h14.942a30.437 30.437 0 0 1 -7.912 13.656l-4.687 4.687 11.314 11.314 4.687-4.687a46.277 46.277 0 0 0 12.962-24.97h8.694a24.027 24.027 0 0 1 24 24v56a16.019 16.019 0 0 0 16 16h32a8 8 0 0 0 6.074-2.794l27.172-31.7a61.546 61.546 0 0 1 11.354-10.317l-9.2-13.089a77.571 77.571 0 0 0 -14.305 13l-24.775 28.9h-28.32v-56a40.045 40.045 0 0 0 -40-40h-34.234l-6.177-18.53a8 8 0 0 0 -12.389-3.87l-29.867 22.4h-10.019l-29.657-29.657-11.314 11.314 18.575 18.575a107.254 107.254 0 0 0 -21.51 3.6c-.067.019-.133.041-.2.06l-9.551-9.551-11.314 11.314 4.313 4.313a107.614 107.614 0 0 0 -11.288 6.084l-34.145-34.143 32.882-4.109a25 25 0 0 0 -3.105-49.8h-103v16h103a9 9 0 0 1 1.116 17.923l-49.112 6.139a8 8 0 0 0 -4.665 13.6l83.03 83.03a8.97 8.97 0 1 1 -12.687 12.685l-59.025-59.034-11.314 11.314 59.03 59.03a8.97 8.97 0 1 1 -12.687 12.685l-59.029-59.029-11.314 11.314 59.03 59.03a8.97 8.97 0 1 1 -12.687 12.685l-59.029-59.029-11.314 11.314 59.03 59.03a8.97 8.97 0 1 1 -12.687 12.685l-43.029-43.029-11.314 11.314 15.675 15.675a51.915 51.915 0 0 0 7.937 69.923 32.036 32.036 0 0 0 -17.955 28.745v32a32.036 32.036 0 0 0 32 32h440a8 8 0 0 0 8-8v-256a8 8 0 0 0 -8-8zm-368.018 95.982a25.006 25.006 0 0 0 24-24 24.971 24.971 0 0 0 16.7-42.61l-25.638-25.638a91.083 91.083 0 0 1 15.688-6.961 501.737 501.737 0 0 1 43.193 61.985l-7.586 7.585a30.638 30.638 0 0 0 36.443 48.5 526.475 526.475 0 0 1 22.571 61.157h-65.353a92 92 0 0 1 -84.1-54.711q.058-.649.085-1.307a25.006 25.006 0 0 0 23.997-24zm-8.064 71.868a107.955 107.955 0 0 0 11.446 8.15h-17.814a52.244 52.244 0 0 0 6.368-8.15zm-74.4-47.013 15.85 15.85a24.943 24.943 0 0 0 33.334 1.761 107.457 107.457 0 0 0 13.274 18.087 36 36 0 1 1 -62.458-35.7zm-5.518 119.163v-32a16.019 16.019 0 0 1 16-16h368v64h-368a16.019 16.019 0 0 1 -16-16zm448 16h-48v-240h48z"/></g></svg>