<svg height="512" viewBox="0 0 512 512" width="512" xmlns="http://www.w3.org/2000/svg"><g id="Filled_outline" data-name="Filled outline"><path d="m144 232-32-32-16 16-16-16-16 16-16-16-24 24 64 64z" fill="#5f9548"/><path d="m352 24-288 288 104 104 288-288v-64l-40-40z" fill="#7eb457"/><path d="m168 488 288-288v-72l-288 288z" fill="#74a650"/><path d="m64 384v-72l104 104v72z" fill="#88c25e"/><path d="m131.999 289.088h16.001v101.823h-16.001z" fill="#74a650" transform="matrix(.707 -.707 .707 .707 -199.411 198.579)"/><path d="m255.22 285.469-102.178-102.359a23.994 23.994 0 0 0 -41.042 16.89v64l104 104 48-48v-16a23.926 23.926 0 0 0 -8.78-18.531z" fill="#88c25e"/><path d="m216 368 48-48v-16a24 24 0 0 0 -24-24 24 24 0 0 0 -24 24z" fill="#74a650"/><g fill="#5f9548"><circle cx="152" cy="248" r="16"/><circle cx="184" cy="280" r="16"/><path d="m80 360h16v16h-16z"/><path d="m128 416h16v16h-16z"/></g><path d="m253.373 130.461h45.255v147.078h-45.255z" fill="#348fd9" transform="matrix(.707 -.707 .707 .707 -63.411 254.912)"/><path d="m285.373 98.461h45.255v147.078h-45.255z" fill="#b281c7" transform="matrix(.707 -.707 .707 .707 -31.411 268.167)"/><path d="m317.373 66.461h45.255v147.078h-45.255z" fill="#f35244" transform="matrix(.707 -.707 .707 .707 .589 281.421)"/><path d="m349.373 34.461h45.255v147.078h-45.255z" fill="#ffb531" transform="matrix(.707 -.707 .707 .707 32.589 294.676)"/><path d="m456 200 32 32-16 16 16 16-16 16 16 16-24 24-64-64z" fill="#5f9548"/><path d="m320 56-32-32-16 16-16-16-16 16-16-16-24 24 64 64z" fill="#5f9548"/><path d="m288 368 32 32-16 16 16 16-16 16 16 16-24 24-64-64z" fill="#5f9548"/><path d="m131.999 289.088h16.001v101.823h-16.001z" transform="matrix(.707 -.707 .707 .707 -199.411 198.579)"/><circle cx="152" cy="248" r="16"/><circle cx="184" cy="280" r="16"/><path d="m80 360h16v16h-16z"/><path d="m128 416h16v16h-16z"/><path d="m240 168h16v16h-16z"/><path d="m296 224h16v16h-16z"/><path d="m272 136h16v16h-16z"/><path d="m328 192h16v16h-16z"/><path d="m304 104h16v16h-16z"/><path d="m360 160h16v16h-16z"/><path d="m336 72h16v16h-16z"/><path d="m392 128h16v16h-16z"/><path d="m493.657 258.343-10.344-10.343 10.344-10.343a8 8 0 0 0 0-11.314l-29.657-29.657v-132.686a8 8 0 0 0 -2.343-5.657l-40-40a8 8 0 0 0 -5.657-2.343h-64a8 8 0 0 0 -5.657 2.343l-26.343 26.343-26.343-26.343a8 8 0 0 0 -11.314 0l-10.343 10.344-10.343-10.344a8 8 0 0 0 -11.314 0l-10.343 10.344-10.343-10.344a8 8 0 0 0 -11.314 0l-24 24a8 8 0 0 0 0 11.314l48 48 11.314-11.314-42.344-42.343 12.687-12.687 10.343 10.344a8 8 0 0 0 11.314 0l10.343-10.344 10.343 10.344a8 8 0 0 0 11.314 0l10.343-10.344 20.686 20.687-122.343 122.343 11.314 11.314 10.343-10.343 92.686 92.686-28.848 28.848a31.877 31.877 0 0 0 -11.215-21.29l-101.9-102.077a31.99 31.99 0 0 0 -54.523 19.008l-8.2 8.2-10.343-10.346a8 8 0 0 0 -11.314 0l-10.343 10.344-10.343-10.344a8 8 0 0 0 -11.314 0l-24 24a8 8 0 0 0 0 11.314l48 48 11.314-11.314-42.344-42.343 12.687-12.687 10.343 10.344a8 8 0 0 0 11.314 0l10.343-10.344 10.343 10.344a8 8 0 0 0 11.314 0l2.343-2.343v41.372l-45.657 45.657a7.979 7.979 0 0 0 -2.343 5.662v72a8 8 0 0 0 2.343 5.657l104 104 .014-.014a7.967 7.967 0 0 0 11.3.014l58.343-58.348 58.343 58.343a8 8 0 0 0 11.314 0l24-24a8 8 0 0 0 0-11.314l-10.344-10.343 10.344-10.343a8 8 0 0 0 0-11.314l-10.344-10.343 10.344-10.343a8 8 0 0 0 0-11.314l-26.343-26.343 100.686-100.686 58.343 58.343a8 8 0 0 0 11.314 0l24-24a8 8 0 0 0 0-11.314l-10.344-10.343 10.344-10.343a8 8 0 0 0 0-11.314zm-157.657-207.03 92.686 92.687-20.686 20.686-92.686-92.686zm8 177.373-92.686-92.686 20.686-20.686 92.686 92.686zm32-32-92.686-92.686 20.686-20.686 92.686 92.686zm-20.687-164.686h57.374l35.313 35.313v57.373l-8 8-92.686-92.686zm-136 136 20.687-20.686 92.686 92.686-20.686 20.686zm4.687 180.686v-44.686a16.019 16.019 0 0 1 16-16 15.855 15.855 0 0 1 9.667 3.248l.012-.017c.15.144.3.287.462.418a15.947 15.947 0 0 1 5.859 12.351v12.686zm-104-148.686a15.992 15.992 0 0 1 27.379-11.237l84.221 84.365a32.052 32.052 0 0 0 -23.6 30.872v44.687l-88-88zm-8 75.314 92.686 92.686-36.686 36.686-92.687-92.686zm-40 56 88 88v49.372l-88-88zm104 88 272-272v49.372l-272 272zm132.687-19.314-10.344 10.343a8 8 0 0 0 0 11.314l10.344 10.343-10.344 10.343a8 8 0 0 0 0 11.314l10.344 10.343-12.687 12.687-52.686-52.687 44.686-44.686zm157.656-146.343 10.344 10.343-10.344 10.343a8 8 0 0 0 0 11.314l10.344 10.343-12.687 12.687-52.686-52.687 44.686-44.686 20.687 20.686-10.344 10.343a8 8 0 0 0 0 11.314z"/></g></svg>