<svg height="512" viewBox="0 0 512 512" width="512" xmlns="http://www.w3.org/2000/svg"><g id="Filled_outline" data-name="Filled outline"><path d="m72 88h400a16 16 0 0 1 16 16v272a16 16 0 0 1 -16 16h-400a48 48 0 0 1 -48-48v-208a48 48 0 0 1 48-48z" fill="#6e3c26"/><path d="m56 152h432a0 0 0 0 1 0 0v224a16 16 0 0 1 -16 16h-400a48 48 0 0 1 -48-48v-160a32 32 0 0 1 32-32z" fill="#804a32"/><path d="m488 216h-464v128a48 48 0 0 0 48 48h400a16 16 0 0 0 16-16z" fill="#875036"/><path d="m440 216h16v176h-16z" fill="#804a32"/><path d="m440 200v272a16 16 0 0 1 -16 16h-352a48 48 0 0 1 -47.9-44.88c-.07-1.03-.1-2.07-.1-3.12v-304a48 48 0 0 0 48 48h352a16 16 0 0 1 16 16z" fill="#92563a"/><path d="m440 220.03v251.97a16 16 0 0 1 -16 16h-352a48 48 0 0 1 -47.9-44.88c151.83-25.5 313.49-90.63 415.9-223.09z" fill="#875036"/><path d="m360 152h-240l120-120z" fill="#74a650"/><path d="m408 152h-240l120-120z" fill="#79ad54"/><path d="m456 152h-240l120-120z" fill="#7eb457"/><path d="m312 104-48 48h144l-48-48a33.941 33.941 0 0 1 -48 0z" fill="#5f9548"/><path d="m328 280h40v112h-40z" fill="#ffb531"/><path d="m352 280h16v112h-16z" fill="#fa9f0c"/><path d="m472 80h-68.686l-61.657-61.657a8 8 0 0 0 -11.314 0l-18.343 18.343-18.343-18.343a8 8 0 0 0 -11.314 0l-18.343 18.343-18.343-18.343a8 8 0 0 0 -11.314 0l-117.657 117.657h-60.686a39.933 39.933 0 0 0 -23.287 7.484 39.968 39.968 0 0 1 39.287-47.484h72v-16h-72a56.063 56.063 0 0 0 -56 56v304a56.063 56.063 0 0 0 56 56h352a24.028 24.028 0 0 0 24-24v-272a24.028 24.028 0 0 0 -24-24h-352a39.976 39.976 0 0 1 -32.792-17.135 23.958 23.958 0 0 1 16.792-6.865h424v56h-16v16h16v152a8.009 8.009 0 0 1 -8 8h-8v16h8a24.028 24.028 0 0 0 24-24v-272a24.028 24.028 0 0 0 -24-24zm-400 112h352a8.009 8.009 0 0 1 8 8v272a8.009 8.009 0 0 1 -8 8h-352a40.045 40.045 0 0 1 -40-40v-264.846a55.833 55.833 0 0 0 40 16.846zm67.313-56 100.687-100.687 12.686 12.687-88 88zm48 0 100.687-100.687 12.686 12.687-88 88zm172.687 0h-76.687l29.228-29.228a42.064 42.064 0 0 0 46.917 0l29.229 29.228zm51.314 0-45.657-45.657a8 8 0 0 0 -11.314 0 25.941 25.941 0 0 1 -36.686 0 8 8 0 0 0 -11.314 0l-45.657 45.657h-25.373l100.687-100.687 100.687 100.687zm48 0-40-40h52.686a8.009 8.009 0 0 1 8 8v32z"/><path d="m104 208h32v16h-32z"/><path d="m160 208h32v16h-32z"/><path d="m216 208h32v16h-32z"/><path d="m272 208h32v16h-32z"/><path d="m328 208h32v16h-32z"/><path d="m104 448h32v16h-32z"/><path d="m48 208h32v16h-32z"/><path d="m64 448h16v16h-16z"/><path d="m160 448h32v16h-32z"/><path d="m216 448h32v16h-32z"/><path d="m272 448h32v16h-32z"/><path d="m328 448h32v16h-32z"/><path d="m416 456v-24h-16v16h-16v16h24a8 8 0 0 0 8-8z"/><path d="m400 376h16v32h-16z"/><path d="m400 320h16v32h-16z"/><path d="m400 264h16v32h-16z"/><path d="m400 240h16v-24a8 8 0 0 0 -8-8h-24v16h16z"/><path d="m328 400h40a8 8 0 0 0 8-8v-112a8 8 0 0 0 -8-8h-40a8 8 0 0 0 -8 8v112a8 8 0 0 0 8 8zm8-112h24v96h-24z"/></g></svg>